<svg xmlns="http://www.w3.org/2000/svg" width="191" height="191" viewBox="0 0 191 191"><g transform="translate(-815 -632)"><circle cx="95.5" cy="95.5" r="95.5" transform="translate(815 632)" fill="#1079fc"/><circle cx="64.617" cy="64.617" r="64.617" transform="translate(850.226 659.339)" fill="#fff"/><g transform="translate(825.385 641.048)"><g transform="translate(0 0)"><path d="M11.431,118.748c2.709,2.247,4.936,5.067,4.719,6.986a31.585,31.585,0,0,0-.2,3.495c0,17.438,13.78,31.573,30.776,31.573a30.139,30.139,0,0,0,6.129-.627,10.669,10.669,0,0,1,9.638,3.259,30.212,30.212,0,0,0,45.988-1.057,9.013,9.013,0,0,1,9.416-2.829,29.957,29.957,0,0,0,8.592,1.254c17,0,30.776-14.138,30.776-31.573a31.677,31.677,0,0,0-.517-5.706c-.571-3.119.951-7.005,3.494-9.44A32.032,32.032,0,0,0,158.6,66.506c-2.709-2.247-4.936-5.067-4.719-6.986a31.487,31.487,0,0,0,.2-3.495c0-17.438-13.78-31.572-30.776-31.572a30.159,30.159,0,0,0-6.129.627,10.67,10.67,0,0,1-9.639-3.259,30.156,30.156,0,0,0-45.037,0,10.677,10.677,0,0,1-9.638,3.259,30.162,30.162,0,0,0-6.129-.627c-17,0-30.776,14.138-30.776,31.572a31.871,31.871,0,0,0,.383,4.937c.421,2.705-1.484,6.041-4.253,8.215a32.012,32.012,0,0,0-.651,49.571ZM43.866,95.361c.683-1.206,2.425-1.222,4.02.159l16.055,11.289a4.847,4.847,0,0,0,2.5.8c1.656,0,2.967-1.19,4.234-2.337l51.377-51.3c3.213-3.485,6.336-4.714,8.375-3.377a3.8,3.8,0,0,1,1.713,2.619,4.946,4.946,0,0,1-1.257,3.86L69.113,131.93a4.218,4.218,0,0,1-3.213,1.684,4.035,4.035,0,0,1-3.471-2.295L44.3,98.711A3.41,3.41,0,0,1,43.866,95.361Z" transform="translate(0 -11.722)" fill="#1079fc"/></g></g></g></svg>