<svg xmlns="http://www.w3.org/2000/svg" width="11.126" height="10.615" viewBox="0 0 11.126 10.615">
  <g id="verify" transform="translate(0 -11.722)">
    <g id="Group_24" data-name="Group 24" transform="translate(0 11.722)">
      <path id="Path_380" data-name="Path 380" d="M.748,18.743c.177.147.323.332.309.458a2.077,2.077,0,0,0-.013.229A2.043,2.043,0,0,0,3.058,21.5a1.967,1.967,0,0,0,.4-.041.7.7,0,0,1,.631.214A1.974,1.974,0,0,0,7.1,21.6a.589.589,0,0,1,.616-.186,1.956,1.956,0,0,0,.562.082,2.043,2.043,0,0,0,2.014-2.071,2.083,2.083,0,0,0-.034-.374.741.741,0,0,1,.229-.619,2.1,2.1,0,0,0-.108-3.121c-.177-.147-.323-.332-.309-.458a2.071,2.071,0,0,0,.013-.229,2.043,2.043,0,0,0-2.014-2.071,1.969,1.969,0,0,0-.4.041.7.7,0,0,1-.631-.214,1.97,1.97,0,0,0-2.947,0,.7.7,0,0,1-.631.214,1.969,1.969,0,0,0-.4-.041,2.043,2.043,0,0,0-2.014,2.071,2.1,2.1,0,0,0,.025.324.643.643,0,0,1-.278.539,2.1,2.1,0,0,0-.043,3.252Zm2.122-1.534c.045-.079.159-.08.263.01l1.051.741a.317.317,0,0,0,.164.052.442.442,0,0,0,.277-.153l3.362-3.365c.21-.229.415-.309.548-.222a.249.249,0,0,1,.112.172.325.325,0,0,1-.082.253L4.523,19.608a.276.276,0,0,1-.21.11.264.264,0,0,1-.227-.151L2.9,17.428A.224.224,0,0,1,2.871,17.209Z" transform="translate(0 -11.722)" fill="#1079fc"/>
    </g>
  </g>
</svg>
